# xmcd
#
# Track frame offsets: 
#        150
#        19182
#        41167
#        69477
#        92159
#        119383
#        159065
#
# Disc length: 2150 seconds
#
# Revision: 1
# Processed by: cddbd v1.5.2PL0 Copyright (c) Steve Scherf et al.
# Submitted via: ExactAudioCopyFreeDBPlugin 1.0
#
DISCID=52086407
DTITLE=Beyoncé - 4 (Deluxe Ed. Bonus Disc)
DYEAR=2011
DGENRE=R&B
TTITLE0=Lay Up Under Me
TTITLE1=Schoolin' Life
TTITLE2=Dance for You
TTITLE3=Run the World (Girls) (Kaskade Club Remix)
TTITLE4=Run the World (Girls) (Red Top Club Remix)
TTITLE5=Run the World (Girls) (Jochen Simms Club Remix)
TTITLE6=Data
EXTD=
EXTT0=
EXTT1=
EXTT2=
EXTT3=
EXTT4=
EXTT5=
EXTT6=
PLAYORDER=
